<mxfile host="app.diagrams.net" modified="2024-02-08T21:11:27.607Z" agent="Mozilla/5.0 (Windows NT 10.0; Win64; x64) AppleWebKit/537.36 (KHTML, like Gecko) Chrome/121.0.0.0 Safari/537.36" etag="YzXRaoRbKo1hS4XZy1KE" version="23.1.2" type="device">
  <diagram name="Page-1" id="W5HeWju3qIv87FJqyccO">
    <mxGraphModel dx="1050" dy="603" grid="1" gridSize="10" guides="1" tooltips="1" connect="1" arrows="1" fold="1" page="1" pageScale="1" pageWidth="850" pageHeight="1100" math="0" shadow="0">
      <root>
        <mxCell id="0" />
        <mxCell id="1" parent="0" />
        <mxCell id="FWOFotrTBlbPY26KujSc-1" value="Game" style="swimlane;fontStyle=1;align=center;verticalAlign=top;childLayout=stackLayout;horizontal=1;startSize=26;horizontalStack=0;resizeParent=1;resizeParentMax=0;resizeLast=0;collapsible=1;marginBottom=0;whiteSpace=wrap;html=1;container=0;" vertex="1" parent="1">
          <mxGeometry x="74" y="80" width="210" height="242" as="geometry" />
        </mxCell>
        <mxCell id="FWOFotrTBlbPY26KujSc-5" value="Guess" style="swimlane;fontStyle=1;align=center;verticalAlign=top;childLayout=stackLayout;horizontal=1;startSize=26;horizontalStack=0;resizeParent=1;resizeParentMax=0;resizeLast=0;collapsible=1;marginBottom=0;whiteSpace=wrap;html=1;container=0;" vertex="1" parent="1">
          <mxGeometry x="560" y="80" width="170" height="190" as="geometry" />
        </mxCell>
        <mxCell id="FWOFotrTBlbPY26KujSc-19" value="A game has zero or more guesses,&lt;br&gt;recorded against the unknown &lt;br&gt;secret code." style="endArrow=diamondThin;endFill=1;endSize=18;html=1;rounded=0;entryX=1;entryY=0.5;entryDx=0;entryDy=0;exitX=0;exitY=0.5;exitDx=0;exitDy=0;spacingTop=0;spacingBottom=39;align=center;spacingLeft=0;labelBackgroundColor=none;" edge="1" parent="1" source="FWOFotrTBlbPY26KujSc-8" target="FWOFotrTBlbPY26KujSc-9">
          <mxGeometry width="160" relative="1" as="geometry">
            <mxPoint x="340" y="200" as="sourcePoint" />
            <mxPoint x="500" y="200" as="targetPoint" />
          </mxGeometry>
        </mxCell>
        <mxCell id="FWOFotrTBlbPY26KujSc-20" value="A game is initiated with random generation&lt;br&gt;of a secret code by a web service, which&lt;br&gt;then returns an object of this type." style="text;html=1;align=center;verticalAlign=middle;resizable=0;points=[];autosize=1;strokeColor=none;fillColor=none;container=0;" vertex="1" parent="1">
          <mxGeometry x="54" y="23" width="250" height="60" as="geometry" />
        </mxCell>
        <mxCell id="FWOFotrTBlbPY26KujSc-2" value="+ id: String {read-only}" style="text;strokeColor=none;fillColor=none;align=left;verticalAlign=top;spacingLeft=4;spacingRight=4;overflow=hidden;rotatable=0;points=[[0,0.5],[1,0.5]];portConstraint=eastwest;whiteSpace=wrap;html=1;container=0;" vertex="1" parent="1">
          <mxGeometry x="74" y="106" width="210" height="26" as="geometry" />
        </mxCell>
        <mxCell id="FWOFotrTBlbPY26KujSc-9" value="+ pool: String {read-only}" style="text;strokeColor=none;fillColor=none;align=left;verticalAlign=top;spacingLeft=4;spacingRight=4;overflow=hidden;rotatable=0;points=[[0,0.5],[1,0.5]];portConstraint=eastwest;whiteSpace=wrap;html=1;container=0;" vertex="1" parent="1">
          <mxGeometry x="74" y="132" width="210" height="26" as="geometry" />
        </mxCell>
        <mxCell id="FWOFotrTBlbPY26KujSc-10" value="+ length: int {read-only}" style="text;strokeColor=none;fillColor=none;align=left;verticalAlign=top;spacingLeft=4;spacingRight=4;overflow=hidden;rotatable=0;points=[[0,0.5],[1,0.5]];portConstraint=eastwest;whiteSpace=wrap;html=1;container=0;" vertex="1" parent="1">
          <mxGeometry x="74" y="158" width="210" height="26" as="geometry" />
        </mxCell>
        <mxCell id="FWOFotrTBlbPY26KujSc-11" value="+ start: Date {read-only}" style="text;strokeColor=none;fillColor=none;align=left;verticalAlign=top;spacingLeft=4;spacingRight=4;overflow=hidden;rotatable=0;points=[[0,0.5],[1,0.5]];portConstraint=eastwest;whiteSpace=wrap;html=1;container=0;" vertex="1" parent="1">
          <mxGeometry x="74" y="184" width="210" height="26" as="geometry" />
        </mxCell>
        <mxCell id="FWOFotrTBlbPY26KujSc-12" value="+ solved: boolean {read-only}" style="text;strokeColor=none;fillColor=none;align=left;verticalAlign=top;spacingLeft=4;spacingRight=4;overflow=hidden;rotatable=0;points=[[0,0.5],[1,0.5]];portConstraint=eastwest;whiteSpace=wrap;html=1;container=0;" vertex="1" parent="1">
          <mxGeometry x="74" y="210" width="210" height="26" as="geometry" />
        </mxCell>
        <mxCell id="FWOFotrTBlbPY26KujSc-13" value="+ guesses: List&amp;lt;Guess&amp;gt; {read-only}" style="text;strokeColor=none;fillColor=none;align=left;verticalAlign=top;spacingLeft=4;spacingRight=4;overflow=hidden;rotatable=0;points=[[0,0.5],[1,0.5]];portConstraint=eastwest;whiteSpace=wrap;html=1;container=0;" vertex="1" parent="1">
          <mxGeometry x="74" y="236" width="210" height="26" as="geometry" />
        </mxCell>
        <mxCell id="FWOFotrTBlbPY26KujSc-3" value="" style="line;strokeWidth=1;fillColor=none;align=left;verticalAlign=middle;spacingTop=-1;spacingLeft=3;spacingRight=3;rotatable=0;labelPosition=right;points=[];portConstraint=eastwest;strokeColor=inherit;container=0;" vertex="1" parent="1">
          <mxGeometry x="74" y="262" width="210" height="8" as="geometry" />
        </mxCell>
        <mxCell id="FWOFotrTBlbPY26KujSc-4" value="+ Game(pool: String, length: int)" style="text;strokeColor=none;fillColor=none;align=left;verticalAlign=top;spacingLeft=4;spacingRight=4;overflow=hidden;rotatable=0;points=[[0,0.5],[1,0.5]];portConstraint=eastwest;whiteSpace=wrap;html=1;container=0;" vertex="1" parent="1">
          <mxGeometry x="74" y="270" width="210" height="26" as="geometry" />
        </mxCell>
        <mxCell id="FWOFotrTBlbPY26KujSc-14" value="+ validate(text: String): Guess" style="text;strokeColor=none;fillColor=none;align=left;verticalAlign=top;spacingLeft=4;spacingRight=4;overflow=hidden;rotatable=0;points=[[0,0.5],[1,0.5]];portConstraint=eastwest;whiteSpace=wrap;html=1;container=0;" vertex="1" parent="1">
          <mxGeometry x="74" y="296" width="210" height="26" as="geometry" />
        </mxCell>
        <mxCell id="FWOFotrTBlbPY26KujSc-6" value="+ id: String {read-only}" style="text;strokeColor=none;fillColor=none;align=left;verticalAlign=top;spacingLeft=4;spacingRight=4;overflow=hidden;rotatable=0;points=[[0,0.5],[1,0.5]];portConstraint=eastwest;whiteSpace=wrap;html=1;container=0;" vertex="1" parent="1">
          <mxGeometry x="560" y="106" width="170" height="26" as="geometry" />
        </mxCell>
        <mxCell id="FWOFotrTBlbPY26KujSc-8" value="+ content: String {read-only}" style="text;strokeColor=none;fillColor=none;align=left;verticalAlign=top;spacingLeft=4;spacingRight=4;overflow=hidden;rotatable=0;points=[[0,0.5],[1,0.5]];portConstraint=eastwest;whiteSpace=wrap;html=1;container=0;" vertex="1" parent="1">
          <mxGeometry x="560" y="132" width="170" height="26" as="geometry" />
        </mxCell>
        <mxCell id="FWOFotrTBlbPY26KujSc-15" value="+ correct: int {read-only}" style="text;strokeColor=none;fillColor=none;align=left;verticalAlign=top;spacingLeft=4;spacingRight=4;overflow=hidden;rotatable=0;points=[[0,0.5],[1,0.5]];portConstraint=eastwest;whiteSpace=wrap;html=1;container=0;" vertex="1" parent="1">
          <mxGeometry x="560" y="158" width="170" height="26" as="geometry" />
        </mxCell>
        <mxCell id="FWOFotrTBlbPY26KujSc-16" value="+ close: int {read-only}" style="text;strokeColor=none;fillColor=none;align=left;verticalAlign=top;spacingLeft=4;spacingRight=4;overflow=hidden;rotatable=0;points=[[0,0.5],[1,0.5]];portConstraint=eastwest;whiteSpace=wrap;html=1;container=0;" vertex="1" parent="1">
          <mxGeometry x="560" y="184" width="170" height="26" as="geometry" />
        </mxCell>
        <mxCell id="FWOFotrTBlbPY26KujSc-17" value="+ timestamp: Date {read-only}" style="text;strokeColor=none;fillColor=none;align=left;verticalAlign=top;spacingLeft=4;spacingRight=4;overflow=hidden;rotatable=0;points=[[0,0.5],[1,0.5]];portConstraint=eastwest;whiteSpace=wrap;html=1;container=0;" vertex="1" parent="1">
          <mxGeometry x="560" y="210" width="170" height="26" as="geometry" />
        </mxCell>
        <mxCell id="FWOFotrTBlbPY26KujSc-7" value="" style="line;strokeWidth=1;fillColor=none;align=left;verticalAlign=middle;spacingTop=-1;spacingLeft=3;spacingRight=3;rotatable=0;labelPosition=right;points=[];portConstraint=eastwest;strokeColor=inherit;container=0;" vertex="1" parent="1">
          <mxGeometry x="560" y="236" width="170" height="8" as="geometry" />
        </mxCell>
        <mxCell id="FWOFotrTBlbPY26KujSc-18" value="Guess(content: String)" style="text;strokeColor=none;fillColor=none;align=left;verticalAlign=top;spacingLeft=4;spacingRight=4;overflow=hidden;rotatable=0;points=[[0,0.5],[1,0.5]];portConstraint=eastwest;whiteSpace=wrap;html=1;container=0;" vertex="1" parent="1">
          <mxGeometry x="560" y="244" width="170" height="26" as="geometry" />
        </mxCell>
      </root>
    </mxGraphModel>
  </diagram>
</mxfile>
